<?xml version="1.0" standalone="no"?>
<!DOCTYPE svg PUBLIC "-//W3C//DTD SVG 20010904//EN"
 "http://www.w3.org/TR/2001/REC-SVG-20010904/DTD/svg10.dtd">
<svg version="1.0" xmlns="http://www.w3.org/2000/svg"
 width="150pt" height="150pt" viewBox="0 0 150 150"
 preserveAspectRatio="xMidYMid meet">

<g transform="translate(0,150) scale(0.1,-0.1)"
fill="#545454" stroke="#fff">
<path d="M368 1304 l-368 -184 0 -370 0 -370 375 -187 375 -188 375 188 375
187 0 370 0 370 -370 185 c-203 102 -376 185 -382 184 -7 0 -178 -83 -380
-185z m683 -57 c44 -30 96 -116 104 -175 12 -88 -23 -183 -86 -236 -32 -27
-36 -36 -16 -36 32 0 99 -62 123 -113 33 -71 35 -219 3 -284 -49 -101 -128
-133 -326 -133 l-134 0 3 450 c2 248 2 450 0 450 -2 0 -15 -26 -29 -57 -24
-57 -286 -613 -340 -725 -22 -44 -33 -57 -48 -55 -11 1 -19 8 -17 16 3 15 112
248 240 512 49 101 113 235 142 297 l53 112 147 0 c137 0 149 -2 181 -23z"/>
<path d="M772 1033 l3 -208 100 0 c124 1 163 17 203 84 36 62 38 174 4 238
-38 73 -70 87 -200 91 l-112 4 2 -209z"/>
<path d="M770 545 l0 -235 108 0 c129 0 172 11 221 55 45 41 61 88 61 176 0
86 -15 133 -56 179 -43 48 -90 60 -228 60 l-106 0 0 -235z"/>
</g>
</svg>
